<mxfile host="app.diagrams.net" modified="2024-04-27T08:17:18.857Z" agent="Mozilla/5.0 (Windows NT 10.0; Win64; x64) AppleWebKit/537.36 (KHTML, like Gecko) Chrome/126.0.0.0 Safari/537.36" etag="5_bWZblpk4Bh81y7Tb0K" version="24.2.8" type="device">
  <diagram id="R2lEEEUBdFMjLlhIrx00" name="Page-1">
    <mxGraphModel dx="1434" dy="738" grid="0" gridSize="10" guides="1" tooltips="1" connect="1" arrows="1" fold="1" page="1" pageScale="1" pageWidth="1200" pageHeight="1600" math="0" shadow="0" extFonts="Permanent Marker^https://fonts.googleapis.com/css?family=Permanent+Marker">
      <root>
        <mxCell id="0" />
        <mxCell id="1" parent="0" />
        <mxCell id="iWFTGqztnbKF80JdFYWm-1" value="AddressBook:" style="swimlane;fontStyle=1;childLayout=stackLayout;horizontal=1;startSize=30;horizontalStack=0;resizeParent=1;resizeParentMax=0;resizeLast=0;collapsible=1;marginBottom=0;rounded=0;" vertex="1" parent="1">
          <mxGeometry x="35" y="40" width="390" height="190" as="geometry" />
        </mxCell>
        <mxCell id="iWFTGqztnbKF80JdFYWm-2" value="- data: Dict[str, Record]" style="text;strokeColor=none;fillColor=none;align=left;verticalAlign=top;spacingLeft=4;spacingRight=4;overflow=hidden;rotatable=1;points=[[0,0.5],[1,0.5]];portConstraint=eastwest;movable=1;resizable=1;deletable=1;editable=1;locked=0;connectable=1;rounded=0;" vertex="1" parent="iWFTGqztnbKF80JdFYWm-1">
          <mxGeometry y="30" width="390" height="26" as="geometry" />
        </mxCell>
        <mxCell id="iWFTGqztnbKF80JdFYWm-63" value="" style="endArrow=none;html=1;rounded=0;exitX=0.001;exitY=0.011;exitDx=0;exitDy=0;exitPerimeter=0;entryX=1.001;entryY=-0.007;entryDx=0;entryDy=0;entryPerimeter=0;" edge="1" parent="iWFTGqztnbKF80JdFYWm-1" source="iWFTGqztnbKF80JdFYWm-52" target="iWFTGqztnbKF80JdFYWm-52">
          <mxGeometry width="50" height="50" relative="1" as="geometry">
            <mxPoint x="315" y="94" as="sourcePoint" />
            <mxPoint x="365" y="44" as="targetPoint" />
            <Array as="points" />
          </mxGeometry>
        </mxCell>
        <mxCell id="iWFTGqztnbKF80JdFYWm-52" value="+ add_record (record: Record): void" style="text;strokeColor=none;fillColor=none;align=left;verticalAlign=top;spacingLeft=4;spacingRight=4;overflow=hidden;rotatable=0;points=[[0,0.5],[1,0.5]];portConstraint=eastwest;rounded=0;" vertex="1" parent="iWFTGqztnbKF80JdFYWm-1">
          <mxGeometry y="56" width="390" height="26" as="geometry" />
        </mxCell>
        <mxCell id="iWFTGqztnbKF80JdFYWm-4" value="+ find(name: str): Record" style="text;strokeColor=none;fillColor=none;align=left;verticalAlign=top;spacingLeft=4;spacingRight=4;overflow=hidden;rotatable=0;points=[[0,0.5],[1,0.5]];portConstraint=eastwest;rounded=0;" vertex="1" parent="iWFTGqztnbKF80JdFYWm-1">
          <mxGeometry y="82" width="390" height="26" as="geometry" />
        </mxCell>
        <mxCell id="iWFTGqztnbKF80JdFYWm-5" value="+ delete(name: str): void" style="text;strokeColor=none;fillColor=none;align=left;verticalAlign=top;spacingLeft=4;spacingRight=4;overflow=hidden;rotatable=0;points=[[0,0.5],[1,0.5]];portConstraint=eastwest;rounded=0;" vertex="1" parent="iWFTGqztnbKF80JdFYWm-1">
          <mxGeometry y="108" width="390" height="26" as="geometry" />
        </mxCell>
        <mxCell id="iWFTGqztnbKF80JdFYWm-6" value="+ find_next_weekday(d: datetime.date, weekday: int): datetime.date" style="text;strokeColor=none;fillColor=none;align=left;verticalAlign=top;spacingLeft=4;spacingRight=4;overflow=hidden;rotatable=0;points=[[0,0.5],[1,0.5]];portConstraint=eastwest;rounded=0;" vertex="1" parent="iWFTGqztnbKF80JdFYWm-1">
          <mxGeometry y="134" width="390" height="26" as="geometry" />
        </mxCell>
        <mxCell id="iWFTGqztnbKF80JdFYWm-7" value="+ get_upcoming_birthdays(days=7): list" style="text;strokeColor=none;fillColor=none;align=left;verticalAlign=top;spacingLeft=4;spacingRight=4;overflow=hidden;rotatable=0;points=[[0,0.5],[1,0.5]];portConstraint=eastwest;rounded=0;" vertex="1" parent="iWFTGqztnbKF80JdFYWm-1">
          <mxGeometry y="160" width="390" height="30" as="geometry" />
        </mxCell>
        <mxCell id="iWFTGqztnbKF80JdFYWm-35" value="" style="endArrow=open;endFill=1;endSize=12;html=1;rounded=0;exitX=0.421;exitY=1.061;exitDx=0;exitDy=0;exitPerimeter=0;" edge="1" parent="iWFTGqztnbKF80JdFYWm-1" source="iWFTGqztnbKF80JdFYWm-7">
          <mxGeometry width="160" relative="1" as="geometry">
            <mxPoint x="165" y="200" as="sourcePoint" />
            <mxPoint x="165" y="240" as="targetPoint" />
          </mxGeometry>
        </mxCell>
        <mxCell id="iWFTGqztnbKF80JdFYWm-8" value="Record:" style="swimlane;fontStyle=1;childLayout=stackLayout;horizontal=1;startSize=26;horizontalStack=0;resizeParent=1;resizeParentMax=0;resizeLast=0;collapsible=1;marginBottom=0;rounded=0;" vertex="1" parent="1">
          <mxGeometry x="35" y="280" width="310" height="234" as="geometry" />
        </mxCell>
        <mxCell id="iWFTGqztnbKF80JdFYWm-9" value="- name: Name" style="text;strokeColor=none;fillColor=none;align=left;verticalAlign=top;spacingLeft=4;spacingRight=4;overflow=hidden;rotatable=0;points=[[0,0.5],[1,0.5]];portConstraint=eastwest;rounded=0;" vertex="1" parent="iWFTGqztnbKF80JdFYWm-8">
          <mxGeometry y="26" width="310" height="26" as="geometry" />
        </mxCell>
        <mxCell id="iWFTGqztnbKF80JdFYWm-10" value="- phones: List[Phone]" style="text;strokeColor=none;fillColor=none;align=left;verticalAlign=top;spacingLeft=4;spacingRight=4;overflow=hidden;rotatable=0;points=[[0,0.5],[1,0.5]];portConstraint=eastwest;rounded=0;" vertex="1" parent="iWFTGqztnbKF80JdFYWm-8">
          <mxGeometry y="52" width="310" height="26" as="geometry" />
        </mxCell>
        <mxCell id="iWFTGqztnbKF80JdFYWm-11" value="- birthday: Birthday" style="text;strokeColor=none;fillColor=none;align=left;verticalAlign=top;spacingLeft=4;spacingRight=4;overflow=hidden;rotatable=0;points=[[0,0.5],[1,0.5]];portConstraint=eastwest;rounded=0;" vertex="1" parent="iWFTGqztnbKF80JdFYWm-8">
          <mxGeometry y="78" width="310" height="26" as="geometry" />
        </mxCell>
        <mxCell id="iWFTGqztnbKF80JdFYWm-12" value="+ add_phone(phone_number: str): void" style="text;strokeColor=none;fillColor=none;align=left;verticalAlign=top;spacingLeft=4;spacingRight=4;overflow=hidden;rotatable=0;points=[[0,0.5],[1,0.5]];portConstraint=eastwest;rounded=0;" vertex="1" parent="iWFTGqztnbKF80JdFYWm-8">
          <mxGeometry y="104" width="310" height="26" as="geometry" />
        </mxCell>
        <mxCell id="iWFTGqztnbKF80JdFYWm-13" value="+ remove_phone(phone_number: str): void" style="text;strokeColor=none;fillColor=none;align=left;verticalAlign=top;spacingLeft=4;spacingRight=4;overflow=hidden;rotatable=0;points=[[0,0.5],[1,0.5]];portConstraint=eastwest;rounded=0;" vertex="1" parent="iWFTGqztnbKF80JdFYWm-8">
          <mxGeometry y="130" width="310" height="26" as="geometry" />
        </mxCell>
        <mxCell id="iWFTGqztnbKF80JdFYWm-14" value="+ edit_phone(old_number: str, new_number: str): void" style="text;strokeColor=none;fillColor=none;align=left;verticalAlign=top;spacingLeft=4;spacingRight=4;overflow=hidden;rotatable=0;points=[[0,0.5],[1,0.5]];portConstraint=eastwest;rounded=0;" vertex="1" parent="iWFTGqztnbKF80JdFYWm-8">
          <mxGeometry y="156" width="310" height="26" as="geometry" />
        </mxCell>
        <mxCell id="iWFTGqztnbKF80JdFYWm-15" value="+ add_birthday(birthday: str): void" style="text;strokeColor=none;fillColor=none;align=left;verticalAlign=top;spacingLeft=4;spacingRight=4;overflow=hidden;rotatable=0;points=[[0,0.5],[1,0.5]];portConstraint=eastwest;rounded=0;" vertex="1" parent="iWFTGqztnbKF80JdFYWm-8">
          <mxGeometry y="182" width="310" height="26" as="geometry" />
        </mxCell>
        <mxCell id="iWFTGqztnbKF80JdFYWm-16" value="+ __str__(): str" style="text;strokeColor=none;fillColor=none;align=left;verticalAlign=top;spacingLeft=4;spacingRight=4;overflow=hidden;rotatable=0;points=[[0,0.5],[1,0.5]];portConstraint=eastwest;rounded=0;" vertex="1" parent="iWFTGqztnbKF80JdFYWm-8">
          <mxGeometry y="208" width="310" height="26" as="geometry" />
        </mxCell>
        <mxCell id="iWFTGqztnbKF80JdFYWm-65" value="" style="endArrow=none;html=1;rounded=0;exitX=-0.001;exitY=0.004;exitDx=0;exitDy=0;exitPerimeter=0;entryX=1;entryY=1.004;entryDx=0;entryDy=0;entryPerimeter=0;" edge="1" parent="iWFTGqztnbKF80JdFYWm-8" source="iWFTGqztnbKF80JdFYWm-12" target="iWFTGqztnbKF80JdFYWm-11">
          <mxGeometry width="50" height="50" relative="1" as="geometry">
            <mxPoint x="285" y="120" as="sourcePoint" />
            <mxPoint x="335" y="70" as="targetPoint" />
          </mxGeometry>
        </mxCell>
        <mxCell id="iWFTGqztnbKF80JdFYWm-17" value="Field" style="swimlane;fontStyle=3;childLayout=stackLayout;horizontal=1;startSize=26;horizontalStack=0;resizeParent=1;resizeParentMax=0;resizeLast=0;collapsible=1;marginBottom=0;rounded=0;" vertex="1" parent="1">
          <mxGeometry x="780" y="350" width="170" height="104" as="geometry" />
        </mxCell>
        <mxCell id="iWFTGqztnbKF80JdFYWm-18" value="- value: str" style="text;strokeColor=none;fillColor=none;align=left;verticalAlign=top;spacingLeft=4;spacingRight=4;overflow=hidden;rotatable=0;points=[[0,0.5],[1,0.5]];portConstraint=eastwest;rounded=0;" vertex="1" parent="iWFTGqztnbKF80JdFYWm-17">
          <mxGeometry y="26" width="170" height="26" as="geometry" />
        </mxCell>
        <mxCell id="iWFTGqztnbKF80JdFYWm-68" value="" style="endArrow=none;html=1;rounded=0;exitX=0.002;exitY=1.003;exitDx=0;exitDy=0;exitPerimeter=0;entryX=1.001;entryY=0.997;entryDx=0;entryDy=0;entryPerimeter=0;" edge="1" parent="iWFTGqztnbKF80JdFYWm-17">
          <mxGeometry width="50" height="50" relative="1" as="geometry">
            <mxPoint y="51.60000000000002" as="sourcePoint" />
            <mxPoint x="170" y="51.60000000000002" as="targetPoint" />
          </mxGeometry>
        </mxCell>
        <mxCell id="iWFTGqztnbKF80JdFYWm-19" value="+ __init__(value: str): void" style="text;strokeColor=none;fillColor=none;align=left;verticalAlign=top;spacingLeft=4;spacingRight=4;overflow=hidden;rotatable=0;points=[[0,0.5],[1,0.5]];portConstraint=eastwest;rounded=0;" vertex="1" parent="iWFTGqztnbKF80JdFYWm-17">
          <mxGeometry y="52" width="170" height="26" as="geometry" />
        </mxCell>
        <mxCell id="iWFTGqztnbKF80JdFYWm-20" value="+ __str__(): str" style="text;strokeColor=none;fillColor=none;align=left;verticalAlign=top;spacingLeft=4;spacingRight=4;overflow=hidden;rotatable=0;points=[[0,0.5],[1,0.5]];portConstraint=eastwest;rounded=0;" vertex="1" parent="iWFTGqztnbKF80JdFYWm-17">
          <mxGeometry y="78" width="170" height="26" as="geometry" />
        </mxCell>
        <mxCell id="iWFTGqztnbKF80JdFYWm-21" value="Name:" style="swimlane;fontStyle=1;childLayout=stackLayout;horizontal=1;startSize=26;horizontalStack=0;resizeParent=1;resizeParentMax=0;resizeLast=0;collapsible=1;marginBottom=0;rounded=0;" vertex="1" parent="1">
          <mxGeometry x="510" y="240" width="170" height="78" as="geometry" />
        </mxCell>
        <mxCell id="iWFTGqztnbKF80JdFYWm-22" value="- value: str" style="text;strokeColor=none;fillColor=none;align=left;verticalAlign=top;spacingLeft=4;spacingRight=4;overflow=hidden;rotatable=0;points=[[0,0.5],[1,0.5]];portConstraint=eastwest;rounded=0;" vertex="1" parent="iWFTGqztnbKF80JdFYWm-21">
          <mxGeometry y="26" width="170" height="26" as="geometry" />
        </mxCell>
        <mxCell id="iWFTGqztnbKF80JdFYWm-23" value="+ __init__(value: str): void" style="text;strokeColor=none;fillColor=none;align=left;verticalAlign=top;spacingLeft=4;spacingRight=4;overflow=hidden;rotatable=0;points=[[0,0.5],[1,0.5]];portConstraint=eastwest;rounded=0;" vertex="1" parent="iWFTGqztnbKF80JdFYWm-21">
          <mxGeometry y="52" width="170" height="26" as="geometry" />
        </mxCell>
        <mxCell id="iWFTGqztnbKF80JdFYWm-62" value="" style="endArrow=none;html=1;rounded=0;exitX=0.002;exitY=1.003;exitDx=0;exitDy=0;exitPerimeter=0;entryX=1.001;entryY=0.997;entryDx=0;entryDy=0;entryPerimeter=0;" edge="1" parent="iWFTGqztnbKF80JdFYWm-21" source="iWFTGqztnbKF80JdFYWm-22" target="iWFTGqztnbKF80JdFYWm-22">
          <mxGeometry width="50" height="50" relative="1" as="geometry">
            <mxPoint x="110" y="110" as="sourcePoint" />
            <mxPoint x="160" y="60" as="targetPoint" />
          </mxGeometry>
        </mxCell>
        <mxCell id="iWFTGqztnbKF80JdFYWm-24" value="Phone:" style="swimlane;fontStyle=1;childLayout=stackLayout;horizontal=1;startSize=26;horizontalStack=0;resizeParent=1;resizeParentMax=0;resizeLast=0;collapsible=1;marginBottom=0;rounded=0;" vertex="1" parent="1">
          <mxGeometry x="510" y="332" width="170" height="130" as="geometry" />
        </mxCell>
        <mxCell id="iWFTGqztnbKF80JdFYWm-25" value="- __value: str" style="text;strokeColor=none;fillColor=none;align=left;verticalAlign=top;spacingLeft=4;spacingRight=4;overflow=hidden;rotatable=0;points=[[0,0.5],[1,0.5]];portConstraint=eastwest;rounded=0;" vertex="1" parent="iWFTGqztnbKF80JdFYWm-24">
          <mxGeometry y="26" width="170" height="26" as="geometry" />
        </mxCell>
        <mxCell id="iWFTGqztnbKF80JdFYWm-66" value="" style="endArrow=none;html=1;rounded=0;exitX=0.002;exitY=1.003;exitDx=0;exitDy=0;exitPerimeter=0;entryX=1.001;entryY=0.997;entryDx=0;entryDy=0;entryPerimeter=0;" edge="1" parent="iWFTGqztnbKF80JdFYWm-24">
          <mxGeometry width="50" height="50" relative="1" as="geometry">
            <mxPoint y="51.60000000000002" as="sourcePoint" />
            <mxPoint x="170" y="51.60000000000002" as="targetPoint" />
          </mxGeometry>
        </mxCell>
        <mxCell id="iWFTGqztnbKF80JdFYWm-26" value="+ value: str (getter)" style="text;strokeColor=none;fillColor=none;align=left;verticalAlign=top;spacingLeft=4;spacingRight=4;overflow=hidden;rotatable=0;points=[[0,0.5],[1,0.5]];portConstraint=eastwest;rounded=0;" vertex="1" parent="iWFTGqztnbKF80JdFYWm-24">
          <mxGeometry y="52" width="170" height="26" as="geometry" />
        </mxCell>
        <mxCell id="iWFTGqztnbKF80JdFYWm-27" value="+ value: str (setter)" style="text;strokeColor=none;fillColor=none;align=left;verticalAlign=top;spacingLeft=4;spacingRight=4;overflow=hidden;rotatable=0;points=[[0,0.5],[1,0.5]];portConstraint=eastwest;rounded=0;" vertex="1" parent="iWFTGqztnbKF80JdFYWm-24">
          <mxGeometry y="78" width="170" height="26" as="geometry" />
        </mxCell>
        <mxCell id="iWFTGqztnbKF80JdFYWm-28" value="+ __init__(value: str): void" style="text;strokeColor=none;fillColor=none;align=left;verticalAlign=top;spacingLeft=4;spacingRight=4;overflow=hidden;rotatable=0;points=[[0,0.5],[1,0.5]];portConstraint=eastwest;rounded=0;" vertex="1" parent="iWFTGqztnbKF80JdFYWm-24">
          <mxGeometry y="104" width="170" height="26" as="geometry" />
        </mxCell>
        <mxCell id="iWFTGqztnbKF80JdFYWm-29" value="Birthday:" style="swimlane;fontStyle=1;childLayout=stackLayout;horizontal=1;startSize=26;horizontalStack=0;resizeParent=1;resizeParentMax=0;resizeLast=0;collapsible=1;marginBottom=0;rounded=0;" vertex="1" parent="1">
          <mxGeometry x="510" y="472" width="170" height="78" as="geometry" />
        </mxCell>
        <mxCell id="iWFTGqztnbKF80JdFYWm-30" value="- date: datetime.date" style="text;strokeColor=none;fillColor=none;align=left;verticalAlign=top;spacingLeft=4;spacingRight=4;overflow=hidden;rotatable=0;points=[[0,0.5],[1,0.5]];portConstraint=eastwest;rounded=0;" vertex="1" parent="iWFTGqztnbKF80JdFYWm-29">
          <mxGeometry y="26" width="170" height="26" as="geometry" />
        </mxCell>
        <mxCell id="iWFTGqztnbKF80JdFYWm-67" value="" style="endArrow=none;html=1;rounded=0;exitX=0.002;exitY=1.003;exitDx=0;exitDy=0;exitPerimeter=0;entryX=1.001;entryY=0.997;entryDx=0;entryDy=0;entryPerimeter=0;" edge="1" parent="iWFTGqztnbKF80JdFYWm-29">
          <mxGeometry width="50" height="50" relative="1" as="geometry">
            <mxPoint y="52" as="sourcePoint" />
            <mxPoint x="170" y="52" as="targetPoint" />
          </mxGeometry>
        </mxCell>
        <mxCell id="iWFTGqztnbKF80JdFYWm-31" value="+ __init__(value: str): void" style="text;strokeColor=none;fillColor=none;align=left;verticalAlign=top;spacingLeft=4;spacingRight=4;overflow=hidden;rotatable=0;points=[[0,0.5],[1,0.5]];portConstraint=eastwest;rounded=0;" vertex="1" parent="iWFTGqztnbKF80JdFYWm-29">
          <mxGeometry y="52" width="170" height="26" as="geometry" />
        </mxCell>
        <mxCell id="iWFTGqztnbKF80JdFYWm-37" value="" style="endArrow=open;html=1;endSize=12;startArrow=diamondThin;startSize=14;startFill=1;edgeStyle=orthogonalEdgeStyle;align=left;verticalAlign=bottom;rounded=0;entryX=0;entryY=0.5;entryDx=0;entryDy=0;" edge="1" parent="1" target="iWFTGqztnbKF80JdFYWm-22">
          <mxGeometry x="-1" y="3" relative="1" as="geometry">
            <mxPoint x="345" y="340" as="sourcePoint" />
            <mxPoint x="490" y="340" as="targetPoint" />
            <Array as="points">
              <mxPoint x="418" y="340" />
              <mxPoint x="418" y="279" />
            </Array>
          </mxGeometry>
        </mxCell>
        <mxCell id="iWFTGqztnbKF80JdFYWm-38" value="" style="endArrow=open;html=1;endSize=12;startArrow=diamondThin;startSize=14;startFill=1;edgeStyle=orthogonalEdgeStyle;align=left;verticalAlign=bottom;rounded=0;" edge="1" parent="1">
          <mxGeometry x="-1" y="3" relative="1" as="geometry">
            <mxPoint x="345" y="410" as="sourcePoint" />
            <mxPoint x="505" y="410" as="targetPoint" />
          </mxGeometry>
        </mxCell>
        <mxCell id="iWFTGqztnbKF80JdFYWm-41" value="" style="endArrow=open;html=1;endSize=12;startArrow=diamondThin;startSize=14;startFill=1;edgeStyle=orthogonalEdgeStyle;align=left;verticalAlign=bottom;rounded=0;entryX=0;entryY=0.5;entryDx=0;entryDy=0;" edge="1" parent="1" target="iWFTGqztnbKF80JdFYWm-30">
          <mxGeometry x="-1" y="3" relative="1" as="geometry">
            <mxPoint x="345" y="462" as="sourcePoint" />
            <mxPoint x="505" y="462" as="targetPoint" />
            <Array as="points">
              <mxPoint x="425" y="462" />
              <mxPoint x="425" y="510" />
              <mxPoint x="510" y="510" />
            </Array>
          </mxGeometry>
        </mxCell>
        <mxCell id="iWFTGqztnbKF80JdFYWm-42" value="" style="endArrow=block;endFill=1;html=1;edgeStyle=orthogonalEdgeStyle;align=left;verticalAlign=top;rounded=0;entryX=0.412;entryY=1.115;entryDx=0;entryDy=0;entryPerimeter=0;" edge="1" parent="1" target="iWFTGqztnbKF80JdFYWm-20">
          <mxGeometry x="-1" relative="1" as="geometry">
            <mxPoint x="680" y="514" as="sourcePoint" />
            <mxPoint x="850" y="460" as="targetPoint" />
            <Array as="points">
              <mxPoint x="680" y="520" />
              <mxPoint x="850" y="520" />
            </Array>
          </mxGeometry>
        </mxCell>
        <mxCell id="iWFTGqztnbKF80JdFYWm-44" value="" style="endArrow=block;endFill=1;html=1;edgeStyle=orthogonalEdgeStyle;align=left;verticalAlign=top;rounded=0;" edge="1" parent="1">
          <mxGeometry x="-1" relative="1" as="geometry">
            <mxPoint x="680" y="401.58" as="sourcePoint" />
            <mxPoint x="770" y="402" as="targetPoint" />
            <mxPoint as="offset" />
          </mxGeometry>
        </mxCell>
        <mxCell id="iWFTGqztnbKF80JdFYWm-46" value="" style="endArrow=block;endFill=1;html=1;edgeStyle=orthogonalEdgeStyle;align=left;verticalAlign=top;rounded=0;entryX=0.417;entryY=-0.013;entryDx=0;entryDy=0;entryPerimeter=0;" edge="1" parent="1" target="iWFTGqztnbKF80JdFYWm-17">
          <mxGeometry x="-1" relative="1" as="geometry">
            <mxPoint x="680" y="280" as="sourcePoint" />
            <mxPoint x="840" y="280" as="targetPoint" />
          </mxGeometry>
        </mxCell>
      </root>
    </mxGraphModel>
  </diagram>
</mxfile>
